<svg xmlns="http://www.w3.org/2000/svg" xmlns:xlink="http://www.w3.org/1999/xlink" viewBox="0 0 26.99 27.01"><defs><clipPath id="a" transform="translate(0)"><rect width="27" height="27" style="fill:none"/></clipPath></defs><title>add_block_icon</title><g style="clip-path:url(#a)"><path d="M0,21.35V5.64a1.09,1.09,0,0,0,.05-.17A6.13,6.13,0,0,1,4.17.36,12.12,12.12,0,0,1,5.64,0H21.35l.17.05a6.16,6.16,0,0,1,5.45,6q0,7.41,0,14.81A6.18,6.18,0,0,1,20.85,27q-7.37,0-14.73,0a6.14,6.14,0,0,1-3.73-1.32A6.2,6.2,0,0,1,.22,22.35C.12,22,.07,21.68,0,21.35Zm17.07-6.69h2a1.2,1.2,0,0,0,.82-.35,1.21,1.21,0,0,0-1-2.06H15.14c-.42,0-.44,0-.44-.45V8a1.24,1.24,0,0,0-.43-1,1.25,1.25,0,0,0-.6-.29,1.14,1.14,0,0,0-.66.1,1.19,1.19,0,0,0-.54.45,1.17,1.17,0,0,0-.19.68v3.9c0,.37,0,.4-.4.4H8.11a1.91,1.91,0,0,0-.54.08,1.12,1.12,0,0,0-.66.51,1.15,1.15,0,0,0-.16.81,1.21,1.21,0,0,0,.4.73,1.24,1.24,0,0,0,.78.28h3.93c.38,0,.42,0,.42.42V19a1.16,1.16,0,0,0,.08.48,1,1,0,0,0,.26.4,1.08,1.08,0,0,0,.39.28,1.18,1.18,0,0,0,1,0,1.12,1.12,0,0,0,.4-.28,1.2,1.2,0,0,0,.26-.4,1.33,1.33,0,0,0,.07-.48V15.1c0-.44,0-.46.47-.46Z" transform="translate(0)" style="fill:#f8fafc"/></g></svg>